<mxfile host="app.diagrams.net" modified="2023-12-18T13:12:19.662Z" agent="Mozilla/5.0 (Macintosh; Intel Mac OS X 10_15_7) AppleWebKit/537.36 (KHTML, like Gecko) Chrome/120.0.0.0 Safari/537.36" etag="9s5E8NbrwRPHZAbbp4hS" version="22.1.11" type="github">
  <diagram id="C5RBs43oDa-KdzZeNtuy" name="Page-1">
    <mxGraphModel dx="1060" dy="656" grid="1" gridSize="10" guides="1" tooltips="1" connect="1" arrows="1" fold="1" page="1" pageScale="1" pageWidth="827" pageHeight="1169" math="0" shadow="0">
      <root>
        <mxCell id="WIyWlLk6GJQsqaUBKTNV-0" />
        <mxCell id="WIyWlLk6GJQsqaUBKTNV-1" parent="WIyWlLk6GJQsqaUBKTNV-0" />
        <mxCell id="xtK8L2MCL9ftGPmvkC70-3" value="" style="edgeStyle=orthogonalEdgeStyle;rounded=0;orthogonalLoop=1;jettySize=auto;html=1;" edge="1" parent="WIyWlLk6GJQsqaUBKTNV-1" source="xtK8L2MCL9ftGPmvkC70-0" target="xtK8L2MCL9ftGPmvkC70-2">
          <mxGeometry relative="1" as="geometry" />
        </mxCell>
        <mxCell id="xtK8L2MCL9ftGPmvkC70-0" value="获取昨天运行过的策略组" style="whiteSpace=wrap;html=1;rounded=1;glass=0;strokeWidth=1;shadow=0;" vertex="1" parent="WIyWlLk6GJQsqaUBKTNV-1">
          <mxGeometry x="160" y="170" width="120" height="60" as="geometry" />
        </mxCell>
        <mxCell id="xtK8L2MCL9ftGPmvkC70-5" value="" style="edgeStyle=orthogonalEdgeStyle;rounded=0;orthogonalLoop=1;jettySize=auto;html=1;" edge="1" parent="WIyWlLk6GJQsqaUBKTNV-1" source="xtK8L2MCL9ftGPmvkC70-2" target="xtK8L2MCL9ftGPmvkC70-4">
          <mxGeometry relative="1" as="geometry" />
        </mxCell>
        <mxCell id="xtK8L2MCL9ftGPmvkC70-2" value="并行处理昨天运行过的策略组" style="whiteSpace=wrap;html=1;rounded=1;glass=0;strokeWidth=1;shadow=0;" vertex="1" parent="WIyWlLk6GJQsqaUBKTNV-1">
          <mxGeometry x="160" y="270" width="120" height="60" as="geometry" />
        </mxCell>
        <mxCell id="xtK8L2MCL9ftGPmvkC70-11" value="" style="edgeStyle=orthogonalEdgeStyle;rounded=0;orthogonalLoop=1;jettySize=auto;html=1;" edge="1" parent="WIyWlLk6GJQsqaUBKTNV-1" source="xtK8L2MCL9ftGPmvkC70-4" target="xtK8L2MCL9ftGPmvkC70-10">
          <mxGeometry relative="1" as="geometry" />
        </mxCell>
        <mxCell id="xtK8L2MCL9ftGPmvkC70-4" value="获取策略详情" style="whiteSpace=wrap;html=1;rounded=1;glass=0;strokeWidth=1;shadow=0;" vertex="1" parent="WIyWlLk6GJQsqaUBKTNV-1">
          <mxGeometry x="160" y="360" width="120" height="60" as="geometry" />
        </mxCell>
        <mxCell id="xtK8L2MCL9ftGPmvkC70-7" value="" style="edgeStyle=orthogonalEdgeStyle;rounded=0;orthogonalLoop=1;jettySize=auto;html=1;" edge="1" parent="WIyWlLk6GJQsqaUBKTNV-1" source="xtK8L2MCL9ftGPmvkC70-6" target="xtK8L2MCL9ftGPmvkC70-0">
          <mxGeometry relative="1" as="geometry" />
        </mxCell>
        <mxCell id="xtK8L2MCL9ftGPmvkC70-6" value="开始" style="ellipse;whiteSpace=wrap;html=1;aspect=fixed;" vertex="1" parent="WIyWlLk6GJQsqaUBKTNV-1">
          <mxGeometry x="185" y="60" width="70" height="70" as="geometry" />
        </mxCell>
        <mxCell id="xtK8L2MCL9ftGPmvkC70-14" value="" style="edgeStyle=orthogonalEdgeStyle;rounded=0;orthogonalLoop=1;jettySize=auto;html=1;" edge="1" parent="WIyWlLk6GJQsqaUBKTNV-1" source="xtK8L2MCL9ftGPmvkC70-10" target="xtK8L2MCL9ftGPmvkC70-13">
          <mxGeometry relative="1" as="geometry" />
        </mxCell>
        <mxCell id="xtK8L2MCL9ftGPmvkC70-10" value="从es/db中获取群分组中群列表" style="whiteSpace=wrap;html=1;rounded=1;glass=0;strokeWidth=1;shadow=0;" vertex="1" parent="WIyWlLk6GJQsqaUBKTNV-1">
          <mxGeometry x="160" y="450" width="120" height="60" as="geometry" />
        </mxCell>
        <mxCell id="xtK8L2MCL9ftGPmvkC70-16" value="" style="edgeStyle=orthogonalEdgeStyle;rounded=0;orthogonalLoop=1;jettySize=auto;html=1;" edge="1" parent="WIyWlLk6GJQsqaUBKTNV-1" source="xtK8L2MCL9ftGPmvkC70-13" target="xtK8L2MCL9ftGPmvkC70-15">
          <mxGeometry relative="1" as="geometry" />
        </mxCell>
        <mxCell id="xtK8L2MCL9ftGPmvkC70-13" value="获取子策略的map" style="whiteSpace=wrap;html=1;rounded=1;glass=0;strokeWidth=1;shadow=0;" vertex="1" parent="WIyWlLk6GJQsqaUBKTNV-1">
          <mxGeometry x="160" y="540" width="120" height="60" as="geometry" />
        </mxCell>
        <mxCell id="xtK8L2MCL9ftGPmvkC70-18" value="" style="edgeStyle=orthogonalEdgeStyle;rounded=0;orthogonalLoop=1;jettySize=auto;html=1;" edge="1" parent="WIyWlLk6GJQsqaUBKTNV-1" source="xtK8L2MCL9ftGPmvkC70-15" target="xtK8L2MCL9ftGPmvkC70-17">
          <mxGeometry relative="1" as="geometry" />
        </mxCell>
        <mxCell id="xtK8L2MCL9ftGPmvkC70-15" value="循环处理群" style="whiteSpace=wrap;html=1;rounded=1;glass=0;strokeWidth=1;shadow=0;" vertex="1" parent="WIyWlLk6GJQsqaUBKTNV-1">
          <mxGeometry x="160" y="630" width="120" height="60" as="geometry" />
        </mxCell>
        <mxCell id="xtK8L2MCL9ftGPmvkC70-22" value="" style="edgeStyle=orthogonalEdgeStyle;rounded=0;orthogonalLoop=1;jettySize=auto;html=1;" edge="1" parent="WIyWlLk6GJQsqaUBKTNV-1" source="xtK8L2MCL9ftGPmvkC70-17" target="xtK8L2MCL9ftGPmvkC70-21">
          <mxGeometry relative="1" as="geometry" />
        </mxCell>
        <mxCell id="xtK8L2MCL9ftGPmvkC70-17" value="1. 昨天已签到&lt;br&gt;2.群状态未解散&lt;br&gt;3.群内有效人数不为0&lt;br&gt;4.群回收状态正常" style="rhombus;whiteSpace=wrap;html=1;rounded=1;glass=0;strokeWidth=1;shadow=0;" vertex="1" parent="WIyWlLk6GJQsqaUBKTNV-1">
          <mxGeometry x="120" y="720" width="200" height="90" as="geometry" />
        </mxCell>
        <mxCell id="xtK8L2MCL9ftGPmvkC70-19" value="" style="endArrow=classic;html=1;rounded=0;exitX=1;exitY=0.5;exitDx=0;exitDy=0;entryX=1;entryY=0.5;entryDx=0;entryDy=0;" edge="1" parent="WIyWlLk6GJQsqaUBKTNV-1" source="xtK8L2MCL9ftGPmvkC70-17" target="xtK8L2MCL9ftGPmvkC70-15">
          <mxGeometry width="50" height="50" relative="1" as="geometry">
            <mxPoint x="270" y="670" as="sourcePoint" />
            <mxPoint x="320" y="620" as="targetPoint" />
            <Array as="points">
              <mxPoint x="390" y="765" />
              <mxPoint x="390" y="660" />
            </Array>
          </mxGeometry>
        </mxCell>
        <mxCell id="xtK8L2MCL9ftGPmvkC70-20" value="否" style="edgeLabel;html=1;align=center;verticalAlign=middle;resizable=0;points=[];" vertex="1" connectable="0" parent="xtK8L2MCL9ftGPmvkC70-19">
          <mxGeometry x="-0.1259" y="4" relative="1" as="geometry">
            <mxPoint as="offset" />
          </mxGeometry>
        </mxCell>
        <mxCell id="xtK8L2MCL9ftGPmvkC70-24" value="" style="edgeStyle=orthogonalEdgeStyle;rounded=0;orthogonalLoop=1;jettySize=auto;html=1;" edge="1" parent="WIyWlLk6GJQsqaUBKTNV-1" source="xtK8L2MCL9ftGPmvkC70-21" target="xtK8L2MCL9ftGPmvkC70-23">
          <mxGeometry relative="1" as="geometry" />
        </mxCell>
        <mxCell id="xtK8L2MCL9ftGPmvkC70-21" value="更新今日签到关系" style="whiteSpace=wrap;html=1;rounded=1;glass=0;strokeWidth=1;shadow=0;" vertex="1" parent="WIyWlLk6GJQsqaUBKTNV-1">
          <mxGeometry x="160" y="840" width="120" height="60" as="geometry" />
        </mxCell>
        <mxCell id="xtK8L2MCL9ftGPmvkC70-26" value="" style="edgeStyle=orthogonalEdgeStyle;rounded=0;orthogonalLoop=1;jettySize=auto;html=1;" edge="1" parent="WIyWlLk6GJQsqaUBKTNV-1" source="xtK8L2MCL9ftGPmvkC70-23" target="xtK8L2MCL9ftGPmvkC70-25">
          <mxGeometry relative="1" as="geometry" />
        </mxCell>
        <mxCell id="xtK8L2MCL9ftGPmvkC70-23" value="1.获取子策略map&lt;br&gt;2.获取群的运营周期&lt;br&gt;3. 获取策略内全量群的关系" style="whiteSpace=wrap;html=1;rounded=1;glass=0;strokeWidth=1;shadow=0;" vertex="1" parent="WIyWlLk6GJQsqaUBKTNV-1">
          <mxGeometry x="160" y="930" width="120" height="60" as="geometry" />
        </mxCell>
        <mxCell id="xtK8L2MCL9ftGPmvkC70-28" value="" style="edgeStyle=orthogonalEdgeStyle;rounded=0;orthogonalLoop=1;jettySize=auto;html=1;" edge="1" parent="WIyWlLk6GJQsqaUBKTNV-1" source="xtK8L2MCL9ftGPmvkC70-25" target="xtK8L2MCL9ftGPmvkC70-27">
          <mxGeometry relative="1" as="geometry" />
        </mxCell>
        <mxCell id="xtK8L2MCL9ftGPmvkC70-25" value="判断是否为首次进群" style="rhombus;whiteSpace=wrap;html=1;rounded=1;glass=0;strokeWidth=1;shadow=0;" vertex="1" parent="WIyWlLk6GJQsqaUBKTNV-1">
          <mxGeometry x="130" y="1020" width="180" height="120" as="geometry" />
        </mxCell>
        <mxCell id="xtK8L2MCL9ftGPmvkC70-27" value="" style="shape=waypoint;sketch=0;size=6;pointerEvents=1;points=[];fillColor=default;resizable=0;rotatable=0;perimeter=centerPerimeter;snapToPoint=1;rounded=1;glass=0;strokeWidth=1;shadow=0;" vertex="1" parent="WIyWlLk6GJQsqaUBKTNV-1">
          <mxGeometry x="470" y="1070" width="20" height="20" as="geometry" />
        </mxCell>
      </root>
    </mxGraphModel>
  </diagram>
</mxfile>
